<svg xmlns="http://www.w3.org/2000/svg" id="Layer_1" data-name="Layer 1" width="670.577" height="152.874">
  <defs id="defs4">
    <style id="style2">
      .cls-1{fill:#09c}
    </style>
  </defs>
  <path class="cls-1" d="M76.44 0C34.224 0 0 34.22 0 76.437c0 42.216 34.224 76.437 76.44 76.437s76.437-34.221 76.437-76.437S118.662 0 76.44 0zm45.027 97.899a23.353 23.353 0 0 1-2.658 10.846l-37.4-37.4-9.957 9.954 46.073 46.06-4.933 4.938.046.046a37.513 37.513 0 0 0-26.533-10.99h-31.24a23.452 23.452 0 0 1-23.452-23.451V54.739a23.452 23.452 0 0 1 23.451-23.452h43.151a23.452 23.452 0 0 1 23.452 23.452z" id="path8" fill="#09c" stroke-width=".307"/>
  <path class="cls-1" d="M670.577 126.397v-44.17a23.94 23.94 0 0 0-23.92-23.91h-50.7v6h50.7a17.92 17.92 0 0 1 17.9 17.9v10.19l-2.25-1.52a18.59 18.59 0 0 0-10.42-3.18h-53.58a18.7 18.7 0 0 0-18.68 18.69v1.3a18.7 18.7 0 0 0 18.68 18.69h53.58a18.59 18.59 0 0 0 10.42-3.18l2.25-1.52v4.7zm-18.69-6h-53.58a12.69 12.69 0 0 1-12.67-12.68v-1.3a12.69 12.69 0 0 1 12.67-12.67h53.58a12.68 12.68 0 0 1 12.67 12.67v1.3a12.69 12.69 0 0 1-12.67 12.67z" id="path10" fill="#09c"/>
  <path class="cls-1" d="M466.747 96.997v-20a18.71 18.71 0 0 0-18.69-18.69h-53.61a18.71 18.71 0 0 0-18.7 18.7v49.39h91v-6h-85v-23.4zm-84.94-20a12.7 12.7 0 0 1 12.68-12.68h53.57a12.7 12.7 0 0 1 12.69 12.69v14h-79z" id="path12" fill="#09c"/>
  <path class="cls-1" d="M297.747 126.397h43.12a23.88 23.88 0 0 0 15.51-5.73l2.39-2v7.77h6v-68.12h-6v44.17a17.92 17.92 0 0 1-17.9 17.9h-43.12a17.92 17.92 0 0 1-17.9-17.9v-44.17h-6v44.17a23.93 23.93 0 0 0 23.9 23.91z" id="path14" fill="#09c"/>
  <path class="cls-1" d="M501.607 64.327h43.14a17.93 17.93 0 0 1 17.9 17.64h6a23.94 23.94 0 0 0-23.9-23.65h-43.14a23.91 23.91 0 0 0-15.51 5.74l-2.39 2v-7.78h-6v68.08h6v-44.13a17.92 17.92 0 0 1 17.9-17.9z" id="path16" fill="#09c"/>
  <path class="cls-1" d="M238.927 35.447h-43.12a24 24 0 0 0-23.92 23.92v43.12a23.94 23.94 0 0 0 23.92 23.91h43.12a23.77 23.77 0 0 0 13.66-4.3l1-.7 4.46 4.44 4.25-4.25-4.46-4.46.7-1a23.77 23.77 0 0 0 4.3-13.66v-43.1a23.94 23.94 0 0 0-23.91-23.92zm17.9 67a17.92 17.92 0 0 1-2.3 8.75l-.94 1.66-34.13-34.09-4.25 4.25 34.13 34.13-1.66.94a17.92 17.92 0 0 1-8.75 2.3h-43.12a17.92 17.92 0 0 1-17.9-17.9v-43.12a17.92 17.92 0 0 1 17.9-17.9h43.12a17.92 17.92 0 0 1 17.9 17.9z" id="path18" fill="#09c"/>
</svg>
